<svg xmlns="http://www.w3.org/2000/svg" viewBox="0 0 420 92" role="img" aria-labelledby="title">
  <title id="title">Coconut Labs</title>
  <g transform="translate(10 14)">
    <path d="M6 36c0-18 14.8-30.8 31.5-27.1C50.9 11.8 60.8 23.7 60.8 37.4 60.8 53.6 47.7 66.7 31.5 66.7 17.4 66.7 6 55.3 6 36Z" fill="#F7F3E8" stroke="#1A1611" stroke-width="3.8"/>
    <path d="M25.6 6.6C27.7-.9 34.6-6 44.6-6.8c-1.2 9.6-7 15.7-17.3 18.4" fill="none" stroke="#4A5B49" stroke-width="3.8" stroke-linecap="round" stroke-linejoin="round"/>
    <path d="M17.7 27.4c4.8-5.3 13.2-6.4 19.9-2.6 6.9 3.9 10 12.2 7.5 19.5" fill="none" stroke="#9B6B1F" stroke-width="3.6" stroke-linecap="round"/>
    <path d="M16.5 43.4c6.3 6.6 17.7 7.3 24.8 1.5" fill="none" stroke="#1A1611" stroke-width="3.6" stroke-linecap="round"/>
  </g>
  <text x="94" y="52" fill="#1A1611" font-family="Georgia, 'Times New Roman', serif" font-size="44">Coconut</text>
  <text x="98" y="76" fill="#5C5447" font-family="'SFMono-Regular', Consolas, monospace" font-size="13" letter-spacing="5">LABS</text>
</svg>
